<svg id="Layer_1" data-name="Layer 1" xmlns="http://www.w3.org/2000/svg" viewBox="0 0 29.4 30.44"><defs><style>.cls-1{fill:#ae5719;}.cls-2{fill:#ad4d0b;}.cls-3{fill:#989898;}.cls-4{fill:none;}.cls-5{fill:#0053a5;}</style></defs><title>fevicon</title><path class="cls-1" d="M28.72,4.66l-.72,0h-.72l-.71,0h-.24l0,.24c0,.24-.05.48-.07.72s0,.49-.05.73,0,.49,0,.74a6.12,6.12,0,0,0,0,.74,5.88,5.88,0,0,0,.23-.71c.06-.23.12-.47.17-.71s.1-.48.14-.72,0-.33.07-.5l.48,0L28,5.06l.71-.13c.24,0,.47-.1.71-.17A5.83,5.83,0,0,0,28.72,4.66Z" transform="translate(-1.3 -0.78)"/><path class="cls-1" d="M29.62,6,29,6h-.62l-.62,0h-.21l0,.21c0,.21-.05.42-.07.63s0,.42,0,.63,0,.42,0,.64a4.68,4.68,0,0,0,0,.64c.08-.2.13-.41.19-.61s.11-.42.15-.62.08-.42.12-.63L28,6.47l.42,0L29,6.36l.62-.1c.2,0,.41-.09.61-.16C30,6.06,29.82,6,29.62,6Z" transform="translate(-1.3 -0.78)"/><path class="cls-1" d="M30,7.58l-.36,0h-.82v.11c0,.12,0,.24,0,.36s0,.24,0,.36,0,.24,0,.36,0,.24,0,.37c0-.12.07-.24.11-.35s.06-.24.08-.35S29,8.2,29,8.08l0-.24.24,0,.36,0L30,7.71l.35-.08A2.23,2.23,0,0,0,30,7.58Z" transform="translate(-1.3 -0.78)"/><path class="cls-2" d="M7.66,3.58l-.08.06A16.24,16.24,0,0,0,6.3,4.69L7,5.57c.38-.36.78-.7,1.19-1Z" transform="translate(-1.3 -0.78)"/><path class="cls-2" d="M1.32,16.77H2.64a11.75,11.75,0,0,1,0-1.19c0-.12,0-.24,0-.36L1.33,15c0,.19,0,.37,0,.56C1.29,16,1.3,16.37,1.32,16.77Z" transform="translate(-1.3 -0.78)"/><path class="cls-2" d="M3.18,11.86c.13-.43.28-.85.45-1.27a1.54,1.54,0,0,1,.08-.19l-1.1-.63-.15.34q-.27.64-.48,1.32Z" transform="translate(-1.3 -0.78)"/><path class="cls-2" d="M6.38,6.23l-.75-.9-.14.14c-.36.38-.7.78-1,1.19l.92.77c.3-.4.62-.79,1-1.16Z" transform="translate(-1.3 -0.78)"/><path class="cls-2" d="M3.93,7.41A15.65,15.65,0,0,0,3,8.93l1.07.62A15.1,15.1,0,0,1,4.86,8.2Z" transform="translate(-1.3 -0.78)"/><path class="cls-2" d="M3.41,20.6c-.05-.16-.11-.32-.16-.48l-1.31.23c.07.23.15.46.23.69s.24.66.38,1l1.24-.45C3.66,21.25,3.53,20.93,3.41,20.6Z" transform="translate(-1.3 -0.78)"/><path class="cls-2" d="M2.69,14.3c.06-.52.15-1,.26-1.54l-1.21-.44c0,.15-.07.3-.11.46q-.13.65-.21,1.29Z" transform="translate(-1.3 -0.78)"/><path class="cls-2" d="M16,1.63a16,16,0,0,1,2,0l.33,0,.32,0,.16,0,.16,0,.33,0,.32.06.16,0,.16,0,.32.07.32.08A15.37,15.37,0,0,1,23,2.9c.4.19.79.38,1.18.6l.56.34L25,4l.14.09.13.09.28.19.26.2.13.1.13.1.26.21.25.22.13.11.12.11.24.22.24.24a16,16,0,0,1,1.73,2,14.72,14.72,0,0,0-8.36-6.52l-.33-.09-.33-.09-.16,0-.17,0-.34-.07L19.05,1l-.17,0-.17,0-.34,0L18,.87a13.73,13.73,0,0,0-2-.08Z" transform="translate(-1.3 -0.78)"/><path class="cls-2" d="M2.78,18.13l-.06-.43H1.4c0,.21.05.42.08.64.06.37.14.74.22,1.11L3,19.22C2.92,18.86,2.84,18.5,2.78,18.13Z" transform="translate(-1.3 -0.78)"/><path class="cls-2" d="M5,23.74a13.84,13.84,0,0,1-.79-1.34l-1.25.46a15.86,15.86,0,0,0,.9,1.54Z" transform="translate(-1.3 -0.78)"/><path class="cls-2" d="M15.17,30l-.48-.06c-.35-.06-.69-.12-1-.2l-.41,1.12c.42.1.84.17,1.27.23l.45.05Z" transform="translate(-1.3 -0.78)"/><path class="cls-2" d="M10.47,28.59c-.21-.1-.41-.21-.61-.32s-.49-.29-.73-.44l-.82,1c.31.19.62.38.94.56l.6.3Z" transform="translate(-1.3 -0.78)"/><path class="cls-2" d="M17.64,30.07l-.39,0c-.38,0-.77,0-1.15,0l-.2,1.13a16.84,16.84,0,0,0,1.74,0Z" transform="translate(-1.3 -0.78)"/><path class="cls-2" d="M30.3,21c-.16.38-.33.77-.52,1.14a14.51,14.51,0,0,1-1.39,2.22,14.71,14.71,0,0,1-3.81,3.53A15.17,15.17,0,0,1,22.28,29a14.08,14.08,0,0,1-2.47.75c-.41.09-.83.15-1.25.2v1.09A15,15,0,0,0,28.92,24.7a15.4,15.4,0,0,0,1.33-2.38c.16-.38.32-.77.45-1.16Z" transform="translate(-1.3 -0.78)"/><path class="cls-2" d="M8.37,27.3a11.27,11.27,0,0,1-1.19-1l-1,.84c.25.22.5.44.76.65l.6.47Z" transform="translate(-1.3 -0.78)"/><path class="cls-2" d="M12.35,30.63l.41-1.13A14.71,14.71,0,0,1,11.31,29l-.62,1.07A13.58,13.58,0,0,0,12.35,30.63Z" transform="translate(-1.3 -0.78)"/><path class="cls-2" d="M11.16,2.81a15.45,15.45,0,0,1,1.48-.55l-.17-.95a13.88,13.88,0,0,0-1.65.55Z" transform="translate(-1.3 -0.78)"/><path class="cls-2" d="M10,2.23h0a16.33,16.33,0,0,0-1.53.84L9,4a13,13,0,0,1,1.35-.8Z" transform="translate(-1.3 -0.78)"/><path class="cls-2" d="M6.52,25.67c-.2-.21-.4-.43-.58-.65s-.29-.35-.43-.53l-1.14.66c.18.25.37.48.57.72s.38.43.58.64Z" transform="translate(-1.3 -0.78)"/><path class="cls-2" d="M15.08.84a16,16,0,0,0-1.71.25l.16.93a13.64,13.64,0,0,1,1.55-.29Z" transform="translate(-1.3 -0.78)"/><path class="cls-3" d="M9.05,10.23c-.07-.07-.13-.11-.18-.09s-.09.07-.11.17a.22.22,0,0,1,.12-.13A.24.24,0,0,1,9.05,10.23Z" transform="translate(-1.3 -0.78)"/><path class="cls-3" d="M9.67,10.92c-.19-.74-.58-1.23-.89-1.15s-.42.7-.23,1.44l.06.19L12.33,24c0,.1.11.16.18.14a.16.16,0,0,0,.08-.21L9.71,11.11A1.29,1.29,0,0,0,9.67,10.92Zm-.8-.78c.3-.08.49.48.58.83s.34,1.48,0,1.56-.59-.9-.72-1.38S8.64,10.2,8.87,10.14Z" transform="translate(-1.3 -0.78)"/><path class="cls-2" d="M21.32,16.58c-1.37-.18-2.73-.32-4.1-.47s-2.73-.27-4.09-.44c-.68-.09-1.36-.18-2-.29l-1-.18c-.34-.07-.67-.15-1-.24a7.87,7.87,0,0,1-1-.32,2.46,2.46,0,0,1-.45-.25,1,1,0,0,1-.19-.16l-.18-.18A1.7,1.7,0,0,1,7,13.62.9.9,0,0,1,7,13.39a2.29,2.29,0,0,1,0-.25,1.44,1.44,0,0,1,.1-.5,2.38,2.38,0,0,1,.23-.45,4.07,4.07,0,0,1,.68-.76,8.3,8.3,0,0,1,.8-.64L9,10.64v0a1.88,1.88,0,0,1-.23.16,7.14,7.14,0,0,0-.82.63,4.13,4.13,0,0,0-.69.76,2.3,2.3,0,0,0-.25.46,1.55,1.55,0,0,0-.1.52,2.46,2.46,0,0,0,0,.26,1.21,1.21,0,0,0,.08.25,1.74,1.74,0,0,0,.27.45l.18.19a1.56,1.56,0,0,0,.2.16,4.17,4.17,0,0,0,.46.26,7.54,7.54,0,0,0,1,.34,19.93,19.93,0,0,0,2,.42c.68.12,1.36.21,2,.3,1.37.17,2.73.31,4.1.45s2.73.28,4.09.46l.89.12v-.1Z" transform="translate(-1.3 -0.78)"/><path class="cls-2" d="M9.61,10.24a9.94,9.94,0,0,1,.92-.47,9.86,9.86,0,0,0-.92.46L9,10.61v0Z" transform="translate(-1.3 -0.78)"/><line class="cls-4" x1="20.45" y1="11.61" x2="21.02" y2="10.27"/><rect x="22.78" y="11.3" width="0.02" height="2.71"/><path d="M24.08,17a3.65,3.65,0,0,0,0,.53v-2.4h0Z" transform="translate(-1.3 -0.78)"/><path d="M27.13,16l-.06.2a2.11,2.11,0,0,1-.69,1.17,2,2,0,0,1-1.29.37H24.7a.62.62,0,0,1-.25,0,2.17,2.17,0,0,1,0-.49V15.45a.59.59,0,0,1,.24.08.76.76,0,0,1,.31.36,2.43,2.43,0,0,1,.22.84l0,.25h.71v-4h-.71l0,.25a2.21,2.21,0,0,1-.31,1,.69.69,0,0,1-.46.27V12.88a1.9,1.9,0,0,1,0-.47l0-.05h.27a3.5,3.5,0,0,1,.93.07,1.27,1.27,0,0,1,.58.37,2.21,2.21,0,0,1,.33.92l.05.22h.68V11.45H22.13l-1.55,3.77L19,11.45H15.76v.84h.54a.52.52,0,0,1,.27.05c.06,0,.08.05.08.06a2,2,0,0,1,0,.48V17c0,.3,0,.4,0,.43a.5.5,0,0,1-.08.2.36.36,0,0,1-.15.1.66.66,0,0,1-.25,0h-.43v.84h2.9v-.84h-.34a1,1,0,0,1-.46-.08.39.39,0,0,1-.14-.2,5,5,0,0,1,0-.52V14l2,4.62h.56L22.19,14v3.19a4.34,4.34,0,0,1,0,.48.25.25,0,0,1-.05.07h0a.67.67,0,0,1-.29.05h-.55v.84h6.19L27.83,16Zm-2.34-.68" transform="translate(-1.3 -0.78)"/><path class="cls-5" d="M27.34,16.23a2.41,2.41,0,0,1-.79,1.32,2.29,2.29,0,0,1-1.46.43H24.7a.84.84,0,0,1-.41-.08.41.41,0,0,1-.17-.2s0,0,0-.07a2.83,2.83,0,0,1,0-.45v-2a1.66,1.66,0,0,1,.7.12,1.06,1.06,0,0,1,.43.49,2.73,2.73,0,0,1,.24.93h.18V13.22h-.18a2.53,2.53,0,0,1-.35,1.17,1,1,0,0,1-.9.4h-.12V12.88a2.23,2.23,0,0,1,.05-.6.54.54,0,0,1,.16-.2h.45a3.75,3.75,0,0,1,1,.09,1.44,1.44,0,0,1,.71.46,2.35,2.35,0,0,1,.39,1h.19V11.78h-4.7l-1.76,4.29-1.83-4.29H16.1V12h.2a.9.9,0,0,1,.44.09.52.52,0,0,1,.22.22,2.27,2.27,0,0,1,.05.61V17a4.53,4.53,0,0,1,0,.49,1.15,1.15,0,0,1-.15.35.67.67,0,0,1-.28.2,1.1,1.1,0,0,1-.41.07H16.1v.17h2.22v-.17a1.13,1.13,0,0,1-.65-.16.67.67,0,0,1-.27-.39,3.21,3.21,0,0,1,0-.59V12.39l2.54,5.9H20l2.49-5.94v4.83a1.78,1.78,0,0,1-.05.6.45.45,0,0,1-.19.23.89.89,0,0,1-.46.11h-.21v.17h5.62l.29-2.06Z" transform="translate(-1.3 -0.78)"/><path class="cls-2" d="M26.64,18.22a.88.88,0,0,0-.34-.4,3.66,3.66,0,0,0-.94-.44,15.11,15.11,0,0,0-2-.49l-1.16-.19v.1l1.15.19c.33.06.67.12,1,.2s.67.16,1,.27a3.51,3.51,0,0,1,.92.42.9.9,0,0,1,.33.37.45.45,0,0,1,0,.23,1.09,1.09,0,0,1-.07.24,2.49,2.49,0,0,1-.52.87,3.76,3.76,0,0,1-.79.64,7.13,7.13,0,0,1-1.9.76c-.33.08-.67.15-1,.2s-.68.09-1,.11c.34,0,.69-.05,1-.09s.67-.12,1-.2a6.7,6.7,0,0,0,1.92-.74,3.31,3.31,0,0,0,.81-.64,2.28,2.28,0,0,0,.61-1.14A.51.51,0,0,0,26.64,18.22Z" transform="translate(-1.3 -0.78)"/></svg>