<svg id="Layer_1" data-name="Layer 1" xmlns="http://www.w3.org/2000/svg" viewBox="0 0 1312.09 448.9"><defs><style>.cls-1{fill:#ad4d0b;}.cls-2{fill:#989898;}.cls-3{fill:#0053a5;}</style></defs><title>527-02</title><path class="cls-1" d="M1085.77,779.48a217.62,217.62,0,0,0-24.41,5.1,140.17,140.17,0,0,0-23.45,8.3,66.68,66.68,0,0,0-10.7,6.23,30.93,30.93,0,0,0-8.41,8.81,16.71,16.71,0,0,0-2.21,11.6,23.65,23.65,0,0,0,1.84,5.75,36.67,36.67,0,0,0,3.12,5.25,61.44,61.44,0,0,0,8.22,9.15c.77.68,1.53,1.4,2.3,2.06l1.18.95,1.24.88a47.14,47.14,0,0,0,5.3,3.07c7.37,3.64,15.34,6.11,23.32,8.29,16,4.28,32.41,7.18,48.83,9.72,32.87,4.94,66,8.41,99.11,11.36s66.33,5.31,99.54,7.46,66.43,4.22,99.65,6.17,66.47,3.79,99.69,6c16.6,1.12,33.21,2.29,49.81,3.64s33.18,2.83,49.71,5c4.13.55,8.26,1.15,12.37,1.84s8.22,1.48,12.28,2.53a45.18,45.18,0,0,1,6,2,12.28,12.28,0,0,1,2.83,1.6c.82.7,1.56,1.43,2.34,2.14a35.56,35.56,0,0,1,7.26,10.26,38.38,38.38,0,0,1,3.33,12.09,50.93,50.93,0,0,1-.36,12.52,68,68,0,0,1-3,12.11,72.68,72.68,0,0,1-5.06,11.41,72.74,72.74,0,0,0,4.85-11.48,68.19,68.19,0,0,0,2.81-12.11,50.29,50.29,0,0,0,.18-12.38,37.18,37.18,0,0,0-3.42-11.82,34.59,34.59,0,0,0-7.22-9.91c-.76-.68-1.52-1.4-2.29-2a11.44,11.44,0,0,0-2.61-1.41,43,43,0,0,0-5.87-1.83c-4-1-8.11-1.71-12.21-2.34s-8.22-1.18-12.34-1.67c-16.5-2-33.09-3.31-49.68-4.54s-33.2-2.25-49.81-3.23c-66.45-3.89-132.94-7.25-199.39-11.53-33.21-2.25-66.42-4.71-99.59-7.73-16.58-1.52-33.15-3.18-49.7-5.08s-33.07-4.07-49.52-6.73-32.86-5.73-49-10.17c-8-2.27-16-4.81-23.58-8.61a48.74,48.74,0,0,1-5.47-3.23l-1.29-.93-1.24-1c-.81-.69-1.56-1.41-2.34-2.12a60.76,60.76,0,0,1-8.34-9.47,37.51,37.51,0,0,1-3.17-5.51,24.93,24.93,0,0,1-1.87-6.12,17.6,17.6,0,0,1,.13-6.43,18.86,18.86,0,0,1,2.39-5.94,31.81,31.81,0,0,1,8.82-9,67.62,67.62,0,0,1,10.92-6.18,141.87,141.87,0,0,1,23.67-8A220.43,220.43,0,0,1,1085.77,779.48Z" transform="translate(-344 -775.55)"/><path class="cls-2" d="M1050.47,786.68c-1.62-1.75-3.13-2.58-4.3-2.28s-2.1,1.78-2.66,4.1a4.12,4.12,0,0,1,7-1.82Z" transform="translate(-344 -775.55)"/><path class="cls-2" d="M1065.33,803c-4.57-17.54-13.77-29.26-21.41-27.27s-10,16.72-5.39,34.26c.4,1.56.86,3.05,1.33,4.51l89,300.66c.66,2.32,2.53,3.82,4.23,3.38s2.61-2.67,2-5l-68.8-305.85C1066.08,806.18,1065.75,804.63,1065.33,803Zm-19.16-18.64c7.08-1.84,11.72,11.64,13.9,20,3,11.59,8.08,35.36,1,37.21s-14.26-21.38-17.28-33C1041.61,800.29,1040.71,785.82,1046.17,784.4Z" transform="translate(-344 -775.55)"/><path d="M396.35,940.62l33.28,103.75,33.19-103.75h47.31v149.12H474.08v-34.82l3.49-71.28-36.06,106.1H417.75L381.6,983.53l3.48,71.39v34.82H349.13V940.62Z" transform="translate(-344 -775.55)"/><path d="M619.52,1061.88H570.25l-8.6,27.86H523.24l54.7-149.12h33.79l55.11,149.12H628.22Zm-40.66-27.75h32.06l-16.08-51.72Z" transform="translate(-344 -775.55)"/><path d="M733.1,1037H713.64v52.74H677.69V940.62h58.69q26.52,0,41.48,11.77t14.95,33.25q0,15.55-6.3,25.78T766.8,1028l31.13,60.21v1.54H759.42Zm-19.46-27.66h22.74q10.25,0,15.41-5.39t5.17-15q0-9.64-5.22-15.14t-15.36-5.5H713.64Z" transform="translate(-344 -775.55)"/><path d="M926.47,968.38H881.71v121.36h-36V968.38H801.82V940.62H926.47Z" transform="translate(-344 -775.55)"/><path d="M1014,1061.88H964.77l-8.6,27.86H917.76l54.69-149.12h33.8l55.1,149.12h-38.61Zm-40.66-27.75h32l-16.08-51.72Z" transform="translate(-344 -775.55)"/><path d="M1269.16,1026.45h-56.53v35.64h66.78v27.65H1176.68V940.62h102.93v27.76h-67v31.44h56.53Z" transform="translate(-344 -775.55)"/><path d="M1348.64,1005.35l27.45-64.73h38.82l-48,95.56v53.56h-36.46v-53.56l-47.93-95.56h38.61Z" transform="translate(-344 -775.55)"/><path d="M1518.25,1026.45h-56.54v35.64h66.78v27.65H1425.76V940.62h102.93v27.76h-67v31.44h56.54Z" transform="translate(-344 -775.55)"/><path d="M1620.05,1050.11q0-7.89-5.58-12.29t-19.61-9.12a187.1,187.1,0,0,1-22.95-9.12q-29-14.22-29-39.12a35.13,35.13,0,0,1,7.22-21.87q7.21-9.47,20.43-14.74a79.45,79.45,0,0,1,29.7-5.28,69.44,69.44,0,0,1,28.83,5.74,45.6,45.6,0,0,1,19.82,16.33,42.63,42.63,0,0,1,7.07,24.23h-35.85q0-9.12-5.58-14.14t-15.11-5q-9.62,0-15.2,4.25a13,13,0,0,0-5.59,10.81q0,5.73,6.15,10.39t21.61,9.63a132.45,132.45,0,0,1,25.4,10.7q24.17,13.93,24.17,38.41,0,19.56-14.75,30.73t-40.45,11.16a80.37,80.37,0,0,1-32.83-6.5q-14.7-6.51-22.12-17.82a46.47,46.47,0,0,1-7.43-26.07h36q0,12,6.2,17.67t20.13,5.68q8.91,0,14.08-3.84A12.66,12.66,0,0,0,1620.05,1050.11Z" transform="translate(-344 -775.55)"/><path class="cls-3" d="M394.22,1189.19h-33v34.11H344v-83.47h54.35v13.94H361.2v21.55h33Z" transform="translate(-344 -775.55)"/><path class="cls-3" d="M446.79,1206.11H416.63l-5.73,17.19H392.61l31.07-83.47h15.94l31.25,83.47H452.58Zm-25.51-13.94h20.86l-10.49-31.24Z" transform="translate(-344 -775.55)"/><path class="cls-3" d="M524.3,1201.41a8.85,8.85,0,0,0-3.44-7.49q-3.45-2.6-12.39-5.5a88.23,88.23,0,0,1-14.16-5.7q-14.22-7.68-14.22-20.7a20.12,20.12,0,0,1,3.82-12.07,24.9,24.9,0,0,1,10.95-8.28,41.13,41.13,0,0,1,16-3,37.55,37.55,0,0,1,15.94,3.24,25.36,25.36,0,0,1,10.86,9.14,23.94,23.94,0,0,1,3.87,13.42h-17.2q0-5.74-3.61-8.92t-10.15-3.18q-6.3,0-9.8,2.67a8.39,8.39,0,0,0-3.5,7c0,2.71,1.37,5,4.1,6.82a46.65,46.65,0,0,0,12.07,5.16q14.67,4.41,21.38,11a21.78,21.78,0,0,1,6.71,16.28q0,10.83-8.2,17t-22.07,6.16a42.6,42.6,0,0,1-17.54-3.52,27.72,27.72,0,0,1-12.07-9.66,24.75,24.75,0,0,1-4.16-14.22h17.26q0,13.82,16.51,13.82,6.13,0,9.58-2.5A8.11,8.11,0,0,0,524.3,1201.41Z" transform="translate(-344 -775.55)"/><path class="cls-3" d="M623.47,1223.3h-17.2v-35.77H572.74v35.77h-17.2v-83.47h17.2v33.83h33.53v-33.83h17.2Z" transform="translate(-344 -775.55)"/><path class="cls-3" d="M659.13,1223.3h-17.2v-83.47h17.2Z" transform="translate(-344 -775.55)"/><path class="cls-3" d="M746,1183.46a50.28,50.28,0,0,1-4.36,21.61,32.78,32.78,0,0,1-12.47,14.34,36.85,36.85,0,0,1-37.12,0,33.14,33.14,0,0,1-12.61-14.24,49,49,0,0,1-4.53-21.3v-4.13a50,50,0,0,1,4.45-21.7,33.07,33.07,0,0,1,12.55-14.39,36.83,36.83,0,0,1,37.09,0,33.16,33.16,0,0,1,12.56,14.39,50,50,0,0,1,4.44,21.64Zm-17.43-3.78q0-13.12-4.7-20t-13.41-6.82q-8.67,0-13.36,6.73t-4.76,19.75v4.07q0,12.78,4.7,19.84t13.53,7q8.66,0,13.3-6.79t4.7-19.81Z" transform="translate(-344 -775.55)"/><path class="cls-3" d="M828.7,1223.3H811.5L778,1168.38v54.92h-17.2v-83.47H778l33.54,55v-55H828.7Z" transform="translate(-344 -775.55)"/><path class="cls-3" d="M894.86,1209.49h36.51v13.81H877.66v-83.47h17.2Z" transform="translate(-344 -775.55)"/><path class="cls-3" d="M994.66,1153.77H969.09v69.53h-17.2v-69.53H926.67v-13.94h68Z" transform="translate(-344 -775.55)"/><path class="cls-3" d="M1006.81,1223.3v-83.47h25.69a39,39,0,0,1,19.69,5,34.61,34.61,0,0,1,13.56,14.11,43.45,43.45,0,0,1,4.87,20.78v3.84a43.65,43.65,0,0,1-4.78,20.7,34.42,34.42,0,0,1-13.51,14,39.15,39.15,0,0,1-19.66,5Zm17.2-69.53v55.72h8.32q10.08,0,15.42-6.59t5.44-18.86v-4.42q0-12.72-5.27-19.29t-15.42-6.56Z" transform="translate(-344 -775.55)"/><path class="cls-3" d="M1078.24,1215.16a8.35,8.35,0,0,1,2.67-6.42,10.37,10.37,0,0,1,13.41,0,8.35,8.35,0,0,1,2.67,6.42,8.23,8.23,0,0,1-2.64,6.34,10.52,10.52,0,0,1-13.47,0A8.23,8.23,0,0,1,1078.24,1215.16Z" transform="translate(-344 -775.55)"/></svg>