<svg id="Layer_1" data-name="Layer 1" xmlns="http://www.w3.org/2000/svg" viewBox="0 0 797.77 826"><defs><style>.cls-1{fill:#ae5719;}.cls-2{fill:#ad4d0b;}.cls-3{fill:#989898;}.cls-4{fill:none;}.cls-5{fill:#0053a5;}</style></defs><title>527-01</title><path class="cls-1" d="M1345.27,692.32c-6.53-.57-13-.91-19.57-1.12s-13-.21-19.51-.11-13,.37-19.47.71l-6.33.34-.76,6.31c-.8,6.56-1.51,13.13-2.06,19.71s-1,13.19-1.22,19.82-.34,13.27-.21,19.95.41,13.36,1.28,20.12c2.49-6.34,4.29-12.78,6.14-19.2s3.28-12.91,4.66-19.4,2.57-13,3.66-19.51c.73-4.46,1.38-8.94,2-13.41,4.39-.32,8.78-.66,13.16-1.1,6.46-.64,12.92-1.41,19.37-2.35s12.89-2,19.31-3.36,12.84-2.82,19.23-4.82C1358.36,693.64,1351.81,692.92,1345.27,692.32Z" transform="translate(-601.12 -587)"/><path class="cls-1" d="M1369.46,729.2c-5.66-.49-11.31-.79-17-1s-11.28-.19-16.92-.1-11.25.32-16.87.61l-5.49.29-.66,5.48c-.7,5.68-1.31,11.37-1.79,17.09s-.85,11.43-1,17.18-.3,11.5-.18,17.28.35,11.59,1.1,17.45c2.16-5.5,3.72-11.08,5.33-16.65s2.84-11.19,4-16.81,2.22-11.27,3.17-16.92c.64-3.86,1.19-7.74,1.72-11.62,3.8-.27,7.6-.57,11.4-.95q8.42-.84,16.79-2c5.59-.83,11.17-1.77,16.74-2.91s11.14-2.44,16.67-4.18C1380.8,730.35,1375.13,729.72,1369.46,729.2Z" transform="translate(-601.12 -587)"/><path class="cls-1" d="M1379,771.51c-3.22-.28-6.44-.44-9.65-.55s-6.41-.1-9.61-.05-6.4.18-9.59.35l-3.12.16-.38,3.11c-.39,3.23-.74,6.47-1,9.72s-.49,6.5-.6,9.76-.17,6.54-.1,9.83.19,6.58.62,9.91c1.23-3.12,2.12-6.29,3-9.46s1.61-6.36,2.3-9.55,1.26-6.41,1.8-9.62c.36-2.2.68-4.4,1-6.61,2.16-.15,4.32-.32,6.48-.54,3.18-.31,6.36-.69,9.54-1.16s6.35-1,9.52-1.65,6.32-1.39,9.47-2.38C1385.48,772.16,1382.26,771.81,1379,771.51Z" transform="translate(-601.12 -587)"/><path class="cls-2" d="M773.82,663.07l-2.26,1.6a412.23,412.23,0,0,0-34.87,28.4l20,23.84A391.1,391.1,0,0,1,789,689.32Z" transform="translate(-601.12 -587)"/><path class="cls-2" d="M601.74,1021H637.4q-1-16.17-.67-32.39c0-3.25.17-6.5.31-9.75L602,972.66c-.32,5-.57,10.07-.71,15.12C601,998.85,601.15,1009.93,601.74,1021Z" transform="translate(-601.12 -587)"/><path class="cls-2" d="M652.21,887.75q5.16-17.55,12-34.55c.71-1.77,1.46-3.52,2.19-5.28l-29.61-17.1q-2.12,4.71-4.12,9.47-7.38,17.46-13,35.62Z" transform="translate(-601.12 -587)"/><path class="cls-2" d="M739.08,734.87,718.63,710.5c-1.24,1.28-2.5,2.54-3.72,3.83a406.2,406.2,0,0,0-27.73,32.32l24.94,20.93a396.37,396.37,0,0,1,26-31.63C738.4,735.58,738.74,735.23,739.08,734.87Z" transform="translate(-601.12 -587)"/><path class="cls-2" d="M672.44,767a417.26,417.26,0,0,0-24.68,41.27l29.13,16.82a387,387,0,0,1,21-36.78Z" transform="translate(-601.12 -587)"/><path class="cls-2" d="M658.5,1125c-1.55-4.4-3-8.83-4.39-13.28L618.48,1118q2.85,9.52,6.13,18.91,4.74,13.42,10.4,26.49l33.75-12.28Q663.15,1138.2,658.5,1125Z" transform="translate(-601.12 -587)"/><path class="cls-2" d="M639,953.76a381.39,381.39,0,0,1,6.94-41.66l-32.88-12q-1.51,6.2-2.86,12.43-3.69,17.4-5.86,35.09Z" transform="translate(-601.12 -587)"/><path class="cls-2" d="M1000,610.12a384.25,384.25,0,0,1,53.22,0c2.94.22,5.89.38,8.83.64l8.8.92,4.4.47,4.39.62,8.77,1.23,8.73,1.55,4.37.77,4.34.91,8.68,1.85,8.62,2.12a395.64,395.64,0,0,1,67.14,23.48c10.77,5,21.5,10.26,31.82,16.26,5.25,2.84,10.25,6.1,15.4,9.14l7.52,4.86,3.76,2.45c1.25.82,2.46,1.7,3.69,2.55l7.36,5.14,7.19,5.38,3.6,2.7,3.51,2.8,7,5.64,6.83,5.87,3.41,2.94,3.32,3,6.63,6.11,6.43,6.32c17.27,16.79,32.63,35.53,46.79,55.19-49.24-83.6-131.68-148.53-226.68-176.9l-8.91-2.63-9-2.33-4.5-1.15-4.54-1-9.08-2-9.15-1.69-4.58-.85-4.6-.69-9.21-1.37c-3.08-.4-6.17-.71-9.26-1.07a389.1,389.1,0,0,0-55-2.17Z" transform="translate(-601.12 -587)"/><path class="cls-2" d="M641.36,1057.8c-.6-3.91-1.13-7.84-1.63-11.76H603.79q1,8.68,2.28,17.33,2.41,15.24,6,30.29l35.34-6.23C645,1077.64,643,1067.76,641.36,1057.8Z" transform="translate(-601.12 -587)"/><path class="cls-2" d="M700.84,1210a384.91,384.91,0,0,1-21.28-36.2l-33.86,12.33a419.45,419.45,0,0,0,24.23,41.71Z" transform="translate(-601.12 -587)"/><path class="cls-2" d="M977.56,1380c-4.41-.52-8.81-1.09-13.19-1.78q-14.1-2.19-28-5.42l-11.11,30.55c11.46,2.54,23,4.61,34.66,6.14,4.06.55,8.12,1,12.18,1.43Z" transform="translate(-601.12 -587)"/><path class="cls-2" d="M849.89,1341.69q-8.34-4.17-16.46-8.74-10.09-5.7-19.85-12l-22.28,26.55c8.37,5.37,16.92,10.46,25.66,15.2q7.92,4.3,16,8.27Z" transform="translate(-601.12 -587)"/><path class="cls-2" d="M1044.43,1381.91c-3.48.2-7,.36-10.44.46q-15.69.47-31.37-.31l-5.4,30.63a408.51,408.51,0,0,0,47.21-.9Z" transform="translate(-601.12 -587)"/><path class="cls-2" d="M1388,1134.5q-6.33,15.8-14,31a396.46,396.46,0,0,1-203.47,188.33,385.24,385.24,0,0,1-67.06,20.38q-16.86,3.52-34,5.55v29.35c13.5-1.84,26.91-4.32,40.14-7.42A401.46,401.46,0,0,0,1245.92,1341a405.84,405.84,0,0,0,140.71-169.58q6.8-15.48,12.25-31.46Z" transform="translate(-601.12 -587)"/><path class="cls-2" d="M792.87,1306.66A386.75,386.75,0,0,1,760.56,1280l-27,22.69q10,9.26,20.59,17.85,8.07,6.54,16.46,12.67Z" transform="translate(-601.12 -587)"/><path class="cls-2" d="M900.88,1397.11l11.2-30.77a387.1,387.1,0,0,1-39.35-14.12l-16.81,29.11A415.79,415.79,0,0,0,900.88,1397.11Z" transform="translate(-601.12 -587)"/><path class="cls-2" d="M868.79,642.19a392.27,392.27,0,0,1,39.93-14.91l-4.58-26a406.31,406.31,0,0,0-44.81,14.9Z" transform="translate(-601.12 -587)"/><path class="cls-2" d="M836.32,626.21l-.09,0a413,413,0,0,0-41.56,22.84l14.76,25.57A382.67,382.67,0,0,1,846.06,653Z" transform="translate(-601.12 -587)"/><path class="cls-2" d="M742.62,1262.39q-8.11-8.55-15.7-17.59-5.91-7-11.48-14.34l-31,17.9q7.44,9.9,15.45,19.35,7.59,8.91,15.7,17.35Z" transform="translate(-601.12 -587)"/><path class="cls-2" d="M975,588.66a418.76,418.76,0,0,0-46.41,6.87l4.42,25a421.37,421.37,0,0,1,42-7.88Z" transform="translate(-601.12 -587)"/><path class="cls-3" d="M811.39,843.46c-1.84-2-3.56-2.93-4.89-2.59s-2.38,2-3,4.65a4.68,4.68,0,0,1,7.9-2.06Z" transform="translate(-601.12 -587)"/><path class="cls-3" d="M828.25,862c-5.18-19.91-15.63-33.22-24.3-31s-11.3,19-6.12,38.88c.46,1.77,1,3.46,1.52,5.12l101,341.21c.74,2.64,2.87,4.34,4.8,3.84s2.95-3,2.32-5.69L829.44,867.32C829.1,865.58,828.72,863.82,828.25,862ZM806.5,840.87c8-2.09,13.31,13.21,15.78,22.71,3.43,13.15,9.17,40.13,1.13,42.22s-16.18-24.26-19.61-37.41C801.33,858.9,800.31,842.48,806.5,840.87Z" transform="translate(-601.12 -587)"/><path class="cls-2" d="M1144.24,1015.74c-37-4.87-74-8.74-111.1-12.63S959,995.59,922,991c-18.47-2.3-36.92-4.81-55.28-7.83q-13.77-2.27-27.45-5c-9.11-1.83-18.18-3.86-27.14-6.29A190.38,190.38,0,0,1,785.89,963a75.45,75.45,0,0,1-12.1-6.56,37,37,0,0,1-5.29-4.31,60,60,0,0,1-4.73-5,44.37,44.37,0,0,1-7.22-11.57,36.2,36.2,0,0,1-2-6.5,34.18,34.18,0,0,1-.61-6.77,38.45,38.45,0,0,1,2.58-13.37,59.5,59.5,0,0,1,6.34-12.21,113.94,113.94,0,0,1,18.36-20.77,217.13,217.13,0,0,1,21.88-17.25c2.06-1.43,4.15-2.84,6.24-4.22l-.23-.59q-3.24,2.07-6.42,4.21a216.37,216.37,0,0,0-22.2,17,114.47,114.47,0,0,0-18.84,20.77,59,59,0,0,0-6.6,12.47,39.72,39.72,0,0,0-2.79,13.9,36.16,36.16,0,0,0,.59,7.12,37.71,37.71,0,0,0,2.06,6.84,46.44,46.44,0,0,0,7.42,12.11,64.05,64.05,0,0,0,4.85,5.17,38.61,38.61,0,0,0,5.49,4.54A77.12,77.12,0,0,0,785,964.88a191.83,191.83,0,0,0,26.52,9.23,537.77,537.77,0,0,0,54.78,11.63c18.4,3.07,36.87,5.63,55.37,8,37,4.67,74.07,8.48,111.12,12.37s74.13,7.58,111.06,12.35q12.09,1.57,24.14,3.33v-2.69Q1156.15,1017.31,1144.24,1015.74Z" transform="translate(-601.12 -587)"/><path class="cls-2" d="M826.7,843.79c8.08-4.63,16.31-9,24.74-13-8.48,3.85-16.77,8.12-24.92,12.65q-8.85,4.95-17.42,10.4l.23.59Q817.85,848.87,826.7,843.79Z" transform="translate(-601.12 -587)"/><line class="cls-4" x1="554.84" y1="314.92" x2="570.31" y2="278.63"/><rect x="618.09" y="306.62" width="0.53" height="73.47"/><path d="M1219.21,1027.92c0,6.48.17,11.3.52,14.5V977.08h-.52Z" transform="translate(-601.12 -587)"/><path d="M1302,998.87l-1.5,5.52c-3.89,14.31-10.23,25-18.84,31.75s-20.34,10.11-35.06,10.11H1236c-4.51,0-6.31-.66-6.81-.9-.21-.91-.73-4.16-.73-13.37V985.2a22.72,22.72,0,0,1,6.61,1.93c3,1.52,5.8,4.88,8.4,10,2.9,5.71,4.86,13.33,5.8,22.64l.68,6.73h19.21V917H1250l-.67,6.75c-1.26,12.66-4.06,22.16-8.32,28.25-2.73,3.89-6.86,6.24-12.49,7.15v-43.7c0-9.27.56-12.16.72-12.78a5.58,5.58,0,0,1,1-1.57h7.21c16.42,0,22.73,1.26,25.09,2,6.88,2.19,12.19,5.58,15.79,10.06,2.59,3.23,6.28,10.15,9.11,24.82l1.17,6.07h18.62V876.5H1166.42l-42.09,102.26L1080.75,876.5H993.62v22.79h14.59c4.38,0,6.51.84,7.39,1.35a6.8,6.8,0,0,1,2,1.56c.18.74.75,3.82.75,13.26v111.83c0,8.2-.1,10.9-.15,11.76a15.23,15.23,0,0,1-2.29,5.57,9.16,9.16,0,0,1-3.89,2.54,18.35,18.35,0,0,1-6.91,1.27H993.62v22.79h78.45v-22.79h-9c-8.31,0-11.52-1.68-12.52-2.4a9.66,9.66,0,0,1-3.87-5.36c-.11-.7-.43-3.66-.43-14V945.8l53.92,125.41h15L1168,945.54V1032c0,9.48-.58,12.36-.73,12.94a4.52,4.52,0,0,1-1.33,1.91l-.13.07c-1.18.69-3.53,1.52-8,1.52h-14.72v22.79h168l10-72.34Zm-63.48-18.4" transform="translate(-601.12 -587)"/><path class="cls-5" d="M1307.69,1006.36q-6.51,24-21.44,35.66t-39.68,11.72H1236q-7.56,0-11-2.13a10.91,10.91,0,0,1-4.63-5.46,12.6,12.6,0,0,1-.47-2c-.31-3-.48-7-.48-12.16V977.11c7.69.15,14.89,1.26,19,3.36q6.65,3.39,11.67,13.24t6.58,25.29h5V924.5h-5q-2.09,21-9.64,31.81t-24.37,10.78h-3.24V915.46q0-13.17,1.44-16.29a13.2,13.2,0,0,1,4.37-5.55h12.15q20.07,0,27.37,2.4,12.51,4,19.35,12.51t10.62,28.08h5V885.48h-127.3l-48,116.53-49.66-116.53h-72.2v4.82h5.6q7.42,0,11.86,2.55t5.87,5.86q1.43,3.33,1.43,16.75v111.83q0,11.87-.26,13.3a24.92,24.92,0,0,1-4,9.51,17.64,17.64,0,0,1-7.69,5.41,27.58,27.58,0,0,1-11,1.89h-1.82v4.82h60.47v-4.82q-12.12,0-17.79-4.11a18.53,18.53,0,0,1-7.36-10.62q-.66-3-.65-16V902.16l68.82,160.06h3.13L1177,901v131q0,13.3-1.43,16.43a12.66,12.66,0,0,1-5.21,6.25q-4.69,2.74-12.52,2.74h-5.73v4.82h152.66l7.74-55.86Z" transform="translate(-601.12 -587)"/><path class="cls-2" d="M1288.85,1060.29c-1.88-4.65-5.56-8.09-9.38-10.86-7.8-5.51-16.64-9-25.47-12-17.78-6-36.1-9.8-54.45-13.17-10.48-1.9-21-3.57-31.52-5.13v2.69c10.38,1.52,20.74,3.15,31.06,5,9.15,1.64,18.28,3.44,27.33,5.51s18,4.39,26.85,7.3,17.48,6.34,25,11.56c3.68,2.62,7.1,5.84,8.76,9.9a13.09,13.09,0,0,1,.88,6.37,36.9,36.9,0,0,1-1.79,6.52,67.67,67.67,0,0,1-14.07,23.49,99.23,99.23,0,0,1-21.52,17.33c-15.84,9.67-33.56,16-51.55,20.59-9,2.29-18.15,4.14-27.35,5.55s-18.46,2.52-27.76,3c9.31-.4,18.59-1.37,27.81-2.67s18.41-3,27.48-5.2c18.1-4.39,36-10.49,52.13-20a100.13,100.13,0,0,0,22-17.45,69.5,69.5,0,0,0,14.62-24,38.69,38.69,0,0,0,1.93-6.92A15.05,15.05,0,0,0,1288.85,1060.29Z" transform="translate(-601.12 -587)"/></svg>