<svg id="Layer_1" data-name="Layer 1" xmlns="http://www.w3.org/2000/svg" viewBox="0 0 994.67 930.38"><defs><style>.cls-1{fill:#ae5719;}.cls-2{fill:#ad4d0b;}.cls-3{fill:#989898;}.cls-4{fill:none;}.cls-5{fill:#0053a5;}</style></defs><title>527-03</title><path class="cls-1" d="M1230.62,605.15c-4.36-.38-8.72-.6-13.07-.74s-8.69-.14-13-.08-8.68.25-13,.48l-4.22.22-.52,4.22c-.53,4.38-1,8.77-1.37,13.17s-.66,8.81-.81,13.24-.24,8.86-.14,13.32.27,8.92.85,13.44c1.66-4.24,2.86-8.54,4.1-12.83s2.19-8.62,3.12-13,1.71-8.68,2.44-13c.49-3,.92-6,1.32-9,2.93-.21,5.86-.44,8.79-.74,4.32-.43,8.63-.94,12.94-1.57s8.61-1.36,12.9-2.24,8.58-1.88,12.84-3.22C1239.36,606,1235,605.56,1230.62,605.15Z" transform="translate(-502.73 -534.81)"/><path class="cls-1" d="M1246.78,629.79c-3.78-.33-7.56-.53-11.33-.64s-7.54-.13-11.3-.07-7.52.21-11.27.41l-3.67.19-.44,3.66c-.46,3.8-.87,7.6-1.19,11.41s-.57,7.64-.71,11.48-.2,7.68-.12,11.55.24,7.73.74,11.65c1.44-3.67,2.48-7.4,3.56-11.12s1.89-7.47,2.7-11.23,1.48-7.52,2.12-11.3c.42-2.58.79-5.17,1.14-7.76,2.54-.18,5.08-.38,7.62-.64q5.61-.55,11.21-1.36c3.74-.55,7.47-1.18,11.19-1.94s7.43-1.64,11.13-2.8C1254.35,630.55,1250.56,630.14,1246.78,629.79Z" transform="translate(-502.73 -534.81)"/><path class="cls-1" d="M1253.17,658.05c-2.15-.19-4.29-.3-6.44-.37s-4.28-.07-6.42,0-4.27.12-6.41.23l-2.08.11-.25,2.08c-.26,2.16-.5,4.32-.68,6.49s-.32,4.34-.4,6.52-.11,4.37-.07,6.56.14,4.4.42,6.63c.82-2.09,1.41-4.21,2-6.33s1.08-4.24,1.54-6.38.84-4.27,1.2-6.42c.24-1.47.45-2.94.65-4.41,1.45-.11,2.89-.22,4.33-.36,2.13-.22,4.26-.47,6.38-.78s4.24-.67,6.35-1.1,4.23-.93,6.33-1.59C1257.48,658.49,1255.32,658.25,1253.17,658.05Z" transform="translate(-502.73 -534.81)"/><path class="cls-2" d="M848.93,585.62c-.5.36-1,.7-1.51,1.07a273,273,0,0,0-23.29,19l13.36,15.92a262.93,262.93,0,0,1,21.56-18.43Z" transform="translate(-502.73 -534.81)"/><path class="cls-2" d="M734,824.69h23.83q-.66-10.82-.45-21.64c0-2.17.11-4.34.2-6.51l-23.43-4.13c-.21,3.36-.38,6.72-.47,10.09C733.47,809.9,733.59,817.3,734,824.69Z" transform="translate(-502.73 -534.81)"/><path class="cls-2" d="M767.7,735.69c2.3-7.81,5-15.52,8-23.07.48-1.19,1-2.36,1.47-3.53L757.4,697.67q-1.41,3.14-2.75,6.32-4.93,11.67-8.67,23.79Z" transform="translate(-502.73 -534.81)"/><path class="cls-2" d="M825.72,633.57,812.06,617.3l-2.49,2.56a270,270,0,0,0-18.51,21.59l16.65,14a261.46,261.46,0,0,1,17.34-21.12C825.27,634.05,825.5,633.82,825.72,633.57Z" transform="translate(-502.73 -534.81)"/><path class="cls-2" d="M781.21,655a278.68,278.68,0,0,0-16.49,27.56l19.46,11.24a260,260,0,0,1,14-24.57Z" transform="translate(-502.73 -534.81)"/><path class="cls-2" d="M771.9,894.12c-1-2.93-2-5.89-2.94-8.86l-23.79,4.19c1.27,4.24,2.63,8.46,4.09,12.63q3.18,9,7,17.7l22.54-8.21C776.26,905.84,774,900,771.9,894.12Z" transform="translate(-502.73 -534.81)"/><path class="cls-2" d="M758.85,779.78A256.59,256.59,0,0,1,763.48,752l-22-8c-.67,2.76-1.32,5.52-1.91,8.3q-2.46,11.63-3.91,23.44Z" transform="translate(-502.73 -534.81)"/><path class="cls-2" d="M1000,550.25a257.18,257.18,0,0,1,35.55,0c2,.15,3.93.26,5.89.43l5.88.61,2.94.32,2.93.41,5.86.83,5.84,1,2.91.51,2.9.61,5.8,1.24,5.76,1.41a264.36,264.36,0,0,1,44.84,15.69c7.2,3.36,14.36,6.85,21.25,10.86,3.51,1.89,6.85,4.07,10.29,6.1l5,3.25,2.51,1.63c.83.55,1.64,1.14,2.46,1.71l4.92,3.43,4.8,3.59,2.4,1.81,2.35,1.87,4.68,3.77,4.56,3.91,2.28,2,2.22,2,4.42,4.08,4.3,4.23a275.76,275.76,0,0,1,31.25,36.86c-32.89-55.84-88-99.21-151.41-118.15l-5.94-1.76-6-1.56-3-.77-3-.67-6.07-1.34-6.11-1.13-3.06-.57-3.07-.46-6.16-.92c-2-.27-4.12-.47-6.18-.71a259.41,259.41,0,0,0-36.77-1.45Z" transform="translate(-502.73 -534.81)"/><path class="cls-2" d="M760.45,849.27q-.6-3.91-1.09-7.85h-24q.64,5.79,1.52,11.57,1.61,10.18,4,20.24l23.6-4.16C762.87,862.53,761.52,855.93,760.45,849.27Z" transform="translate(-502.73 -534.81)"/><path class="cls-2" d="M800.18,950.92A256.8,256.8,0,0,1,786,926.74L763.35,935a280.25,280.25,0,0,0,16.19,27.87Z" transform="translate(-502.73 -534.81)"/><path class="cls-2" d="M985,1064.47c-2.94-.35-5.88-.74-8.81-1.2-6.27-1-12.51-2.19-18.69-3.61l-7.43,20.4q11.49,2.55,23.16,4.1c2.7.37,5.42.68,8.13,1Z" transform="translate(-502.73 -534.81)"/><path class="cls-2" d="M899.73,1038.9q-5.57-2.79-11-5.85c-4.5-2.53-8.92-5.22-13.26-8l-14.88,17.73q8.39,5.38,17.14,10.15,5.29,2.88,10.71,5.53Z" transform="translate(-502.73 -534.81)"/><path class="cls-2" d="M1029.68,1065.76c-2.32.13-4.65.24-7,.31q-10.49.32-21-.21l-3.61,20.46a274.25,274.25,0,0,0,31.54-.6Z" transform="translate(-502.73 -534.81)"/><path class="cls-2" d="M1259.13,900.5q-4.23,10.56-9.34,20.7A264.67,264.67,0,0,1,1113.89,1047a257.58,257.58,0,0,1-44.79,13.61q-11.26,2.36-22.7,3.71v19.61q13.53-1.86,26.81-5a268.4,268.4,0,0,0,91-40.5,271.19,271.19,0,0,0,94-113.27c3-6.89,5.74-13.91,8.18-21Z" transform="translate(-502.73 -534.81)"/><path class="cls-2" d="M861.65,1015.5a259,259,0,0,1-21.58-17.79L822,1012.86q6.68,6.2,13.75,11.93,5.38,4.37,11,8.46Z" transform="translate(-502.73 -534.81)"/><path class="cls-2" d="M933.79,1075.91l7.48-20.55a260.15,260.15,0,0,1-26.28-9.43l-11.23,19.44A275.4,275.4,0,0,0,933.79,1075.91Z" transform="translate(-502.73 -534.81)"/><path class="cls-2" d="M912.36,571.67a261.91,261.91,0,0,1,26.67-10L936,544.37a276.17,276.17,0,0,0-29.93,10Z" transform="translate(-502.73 -534.81)"/><path class="cls-2" d="M890.67,561l-.06,0a276.07,276.07,0,0,0-27.76,15.25l9.86,17.08a255.72,255.72,0,0,1,24.47-14.48Z" transform="translate(-502.73 -534.81)"/><path class="cls-2" d="M828.09,985.92c-3.62-3.8-7.13-7.71-10.49-11.74q-4-4.7-7.67-9.58l-20.71,12c3.32,4.4,6.75,8.72,10.33,12.92q5.07,6,10.48,11.59Z" transform="translate(-502.73 -534.81)"/><path class="cls-2" d="M983.27,535.92a279.94,279.94,0,0,0-31,4.58l2.94,16.73a279.93,279.93,0,0,1,28-5.27Z" transform="translate(-502.73 -534.81)"/><path class="cls-3" d="M874,706.11c-1.23-1.33-2.38-2-3.27-1.73s-1.58,1.35-2,3.11a3.68,3.68,0,0,1,2.24-2.24A3.62,3.62,0,0,1,874,706.11Z" transform="translate(-502.73 -534.81)"/><path class="cls-3" d="M885.28,718.51c-3.46-13.3-10.44-22.19-16.23-20.68s-7.55,12.68-4.09,26c.31,1.18.66,2.31,1,3.42l67.49,227.91c.5,1.76,1.92,2.9,3.21,2.56s2-2,1.55-3.8L886.08,722C885.85,720.88,885.6,719.71,885.28,718.51Zm-14.53-14.13c5.37-1.4,8.89,8.82,10.54,15.17,2.29,8.78,6.13,26.8.76,28.2s-10.81-16.2-13.1-25C867.3,716.42,866.62,705.46,870.75,704.38Z" transform="translate(-502.73 -534.81)"/><path class="cls-2" d="M1096.35,821.18c-24.7-3.25-49.46-5.83-74.21-8.43s-49.52-5-74.21-8.08c-12.34-1.54-24.66-3.22-36.93-5.23-6.13-1-12.24-2.11-18.33-3.34s-12.14-2.58-18.13-4.2a127.68,127.68,0,0,1-17.55-6,49.94,49.94,0,0,1-8.08-4.38,23.83,23.83,0,0,1-3.54-2.88,39.74,39.74,0,0,1-3.16-3.33,29.67,29.67,0,0,1-4.82-7.72,23.92,23.92,0,0,1-1.34-4.34,22.27,22.27,0,0,1-.41-4.53,25.56,25.56,0,0,1,1.72-8.92,39.53,39.53,0,0,1,4.24-8.16,75.85,75.85,0,0,1,12.26-13.87,145.55,145.55,0,0,1,14.62-11.53q2.07-1.42,4.17-2.81l-.16-.4q-2.16,1.38-4.29,2.81a147,147,0,0,0-14.83,11.39,76.74,76.74,0,0,0-12.58,13.86,39.36,39.36,0,0,0-4.41,8.34,26.46,26.46,0,0,0-1.86,9.28,24.47,24.47,0,0,0,.39,4.76,25.32,25.32,0,0,0,1.38,4.57,30.61,30.61,0,0,0,5,8.08,42.25,42.25,0,0,0,3.23,3.46,26,26,0,0,0,3.67,3,51.34,51.34,0,0,0,8.27,4.57,129,129,0,0,0,17.72,6.16,357.72,357.72,0,0,0,36.58,7.77c12.29,2.05,24.63,3.76,37,5.33,24.71,3.12,49.48,5.67,74.23,8.26s49.51,5.07,74.18,8.25q8.07,1,16.12,2.23v-1.8Q1104.3,822.24,1096.35,821.18Z" transform="translate(-502.73 -534.81)"/><path class="cls-2" d="M884.25,706.33c5.39-3.1,10.89-6,16.52-8.66-5.66,2.56-11.2,5.42-16.64,8.44q-5.93,3.32-11.64,6.95l.16.4Q878.34,709.71,884.25,706.33Z" transform="translate(-502.73 -534.81)"/><line class="cls-4" x1="601.44" y1="210.35" x2="611.77" y2="186.11"/><rect x="643.68" y="204.8" width="0.35" height="49.07"/><path d="M1146.42,829.31a95.41,95.41,0,0,0,.35,9.69V795.36h-.35Z" transform="translate(-502.73 -534.81)"/><path d="M1201.7,809.91l-1,3.69c-2.61,9.56-6.84,16.69-12.59,21.2s-13.59,6.76-23.41,6.76h-7a11.37,11.37,0,0,1-4.55-.6c-.14-.61-.49-2.78-.49-8.93V800.78a15.25,15.25,0,0,1,4.42,1.29c2,1,3.87,3.26,5.6,6.66,1.95,3.82,3.25,8.91,3.88,15.13l.46,4.5h12.82V755.24H1167l-.45,4.5c-.84,8.46-2.71,14.81-5.56,18.87-1.82,2.6-4.58,4.17-8.34,4.78V754.2c0-6.19.38-8.12.48-8.53a3.87,3.87,0,0,1,.7-1.06h4.81c11,0,15.19.85,16.76,1.37a21.5,21.5,0,0,1,10.55,6.72c1.73,2.15,4.19,6.78,6.08,16.58l.79,4.05h12.43V728.18h-94l-28.11,68.3-29.11-68.3h-58.2V743.4h9.74a10.08,10.08,0,0,1,4.94.9,4.53,4.53,0,0,1,1.37,1.05c.11.49.49,2.55.49,8.85v74.7c0,5.47-.06,7.28-.1,7.85a10.22,10.22,0,0,1-1.53,3.72,6.09,6.09,0,0,1-2.59,1.7,12.25,12.25,0,0,1-4.62.84h-7.7v15.22h52.4V843h-6c-5.56,0-7.7-1.12-8.37-1.6a6.45,6.45,0,0,1-2.58-3.59,76.59,76.59,0,0,1-.29-9.36v-54l36,83.77h10l35.29-83.94V832c0,6.33-.39,8.25-.49,8.64a2.92,2.92,0,0,1-.89,1.27l-.09.06c-.79.46-2.35,1-5.33,1h-9.83v15.22h112.19l6.69-48.32Zm-42.4-12.29" transform="translate(-502.73 -534.81)"/><path class="cls-5" d="M1205.52,814.91q-4.35,16-14.32,23.83t-26.5,7.82h-7q-5.06,0-7.32-1.42a7.24,7.24,0,0,1-3.09-3.65,7.47,7.47,0,0,1-.31-1.34,80.5,80.5,0,0,1-.32-8.12V795.38c5.14.1,9.94.84,12.69,2.24q4.44,2.26,7.79,8.85t4.4,16.89h3.3V760.24h-3.3q-1.4,14-6.45,21.24t-16.27,7.21h-2.16V754.2q0-8.79,1-10.88a8.78,8.78,0,0,1,2.92-3.71h8.11q13.41,0,18.28,1.6a26.37,26.37,0,0,1,12.93,8.36q4.56,5.68,7.09,18.76h3.31V734.18h-85l-32,77.83L1050,734.18h-48.23v3.22h3.74a16,16,0,0,1,7.93,1.69,8.79,8.79,0,0,1,3.91,3.92q1,2.22,1,11.19v74.7q0,7.92-.17,8.88a16.62,16.62,0,0,1-2.7,6.35,11.74,11.74,0,0,1-5.14,3.62A18.42,18.42,0,0,1,1003,849h-1.22v3.22h40.4V849q-8.1,0-11.89-2.75a12.43,12.43,0,0,1-4.92-7.09q-.43-2-.43-10.71V745.32l46,106.91H1073l45.27-107.69V832q0,8.88-1,11a8.48,8.48,0,0,1-3.48,4.18,16.53,16.53,0,0,1-8.36,1.83h-3.83v3.22h102l5.17-37.32Z" transform="translate(-502.73 -534.81)"/><path class="cls-2" d="M1192.94,850.94a17.38,17.38,0,0,0-6.27-7.26c-5.21-3.68-11.11-6-17-8-11.88-4-24.12-6.55-36.37-8.8-7-1.27-14-2.39-21.06-3.43v1.8c6.94,1,13.86,2.1,20.75,3.33,6.11,1.1,12.21,2.3,18.26,3.68s12,2.93,17.93,4.87,11.67,4.24,16.68,7.73a16.07,16.07,0,0,1,5.85,6.61,8.74,8.74,0,0,1,.58,4.26,24.13,24.13,0,0,1-1.19,4.35,45.07,45.07,0,0,1-9.4,15.69,66.17,66.17,0,0,1-14.37,11.58c-10.58,6.45-22.42,10.68-34.43,13.75q-9,2.3-18.27,3.71c-6.15,1-12.33,1.68-18.54,2,6.21-.26,12.41-.91,18.57-1.78s12.3-2,18.36-3.47c12.08-2.93,24-7,34.82-13.39a66.88,66.88,0,0,0,14.69-11.66,46.36,46.36,0,0,0,9.76-16,25.36,25.36,0,0,0,1.29-4.62A10.11,10.11,0,0,0,1192.94,850.94Z" transform="translate(-502.73 -534.81)"/><path class="cls-2" d="M1065,1127.89a166.48,166.48,0,0,0-18.49,3.92,106.33,106.33,0,0,0-17.74,6.32,50.15,50.15,0,0,0-8.08,4.74,23,23,0,0,0-6.33,6.65,12.47,12.47,0,0,0-1.64,8.69,18,18,0,0,0,1.39,4.32,27.2,27.2,0,0,0,2.36,3.94,46.21,46.21,0,0,0,6.22,6.91,28.75,28.75,0,0,0,3.56,2.92,35.71,35.71,0,0,0,4,2.31,98.61,98.61,0,0,0,17.65,6.25,352.71,352.71,0,0,0,37,7.31c24.91,3.7,50,6.34,75.11,8.56s50.28,4,75.45,5.62,50.35,3.22,75.54,4.71,50.38,2.87,75.56,4.64c12.59.86,25.17,1.77,37.75,2.8s25.16,2.18,37.7,3.82a171.09,171.09,0,0,1,18.69,3.36,34.86,34.86,0,0,1,4.57,1.5,9.68,9.68,0,0,1,2.17,1.24c.62.53,1.18,1.09,1.77,1.63a26.91,26.91,0,0,1,5.51,7.82,28.93,28.93,0,0,1,2.51,9.2,38.22,38.22,0,0,1-.29,9.5,54.86,54.86,0,0,1-6.2,17.82,54.52,54.52,0,0,0,5.75-17.88,37.68,37.68,0,0,0,.12-9.37,28.33,28.33,0,0,0-2.6-8.93,26.13,26.13,0,0,0-5.47-7.47c-.58-.51-1.15-1.06-1.73-1.54a8.65,8.65,0,0,0-2-1,31.72,31.72,0,0,0-4.44-1.37,167.94,167.94,0,0,0-18.6-3c-12.51-1.47-25.08-2.47-37.65-3.39s-25.17-1.67-37.76-2.39c-50.37-2.89-100.77-5.45-151.15-8.66-25.18-1.71-50.35-3.59-75.49-5.9-12.58-1.15-25.14-2.41-37.68-3.86s-25.08-3.1-37.55-5.14a357.5,357.5,0,0,1-37.14-7.76,100.23,100.23,0,0,1-17.91-6.57,37.23,37.23,0,0,1-4.16-2.46l-1-.72-.95-.78c-.61-.54-1.18-1.08-1.77-1.62a46.46,46.46,0,0,1-6.34-7.22,29.06,29.06,0,0,1-2.41-4.21,18.91,18.91,0,0,1-1.42-4.68,13.77,13.77,0,0,1,1.95-9.48,24.27,24.27,0,0,1,6.73-6.85,51.07,51.07,0,0,1,8.31-4.67,106.37,106.37,0,0,1,18-6.05A168.21,168.21,0,0,1,1065,1127.89Z" transform="translate(-502.73 -534.81)"/><path class="cls-3" d="M1038.26,1133.35c-1.23-1.33-2.38-2-3.27-1.73s-1.58,1.35-2,3.11a3.13,3.13,0,0,1,5.28-1.38Z" transform="translate(-502.73 -534.81)"/><path class="cls-3" d="M1049.52,1145.75c-3.46-13.29-10.44-22.18-16.23-20.67s-7.55,12.67-4.09,26c.31,1.19.66,2.32,1,3.42l67.49,227.91c.5,1.77,1.92,2.9,3.21,2.57s2-2,1.55-3.8l-52.15-231.85C1050.09,1148.13,1049.84,1147,1049.52,1145.75ZM1035,1131.62c5.37-1.4,8.89,8.82,10.55,15.17,2.28,8.78,6.12,26.8.75,28.2s-10.81-16.2-13.1-25C1031.54,1143.66,1030.86,1132.7,1035,1131.62Z" transform="translate(-502.73 -534.81)"/><path d="M542.41,1250l25.24,78.65L592.8,1250h35.87v113H601.34v-26.4l2.64-54-27.33,80.43h-18l-27.41-80.51,2.64,54.11v26.4H506.62V1250Z" transform="translate(-502.73 -534.81)"/><path d="M711.58,1342H674.24l-6.52,21.12H638.61l41.45-113h25.62l41.77,113H718.18Zm-30.82-21h24.3l-12.19-39.21Z" transform="translate(-502.73 -534.81)"/><path d="M797.68,1323.1H782.93v40H755.68V1250h44.49q20.1,0,31.44,8.92t11.34,25.2q0,11.79-4.78,19.55t-14.94,12.56l23.6,45.64v1.17H817.64Zm-14.75-21h17.24q7.76,0,11.68-4.08t3.92-11.41q0-7.31-4-11.47T800.17,1271H782.93Z" transform="translate(-502.73 -534.81)"/><path d="M944.26,1271.08H910.33v92H883.08v-92h-33.3v-21h94.48Z" transform="translate(-502.73 -534.81)"/><path d="M1010.64,1342H973.3l-6.52,21.12H937.66l41.46-113h25.62l41.77,113h-29.27Zm-30.82-21h24.3l-12.19-39.21Z" transform="translate(-502.73 -534.81)"/><path d="M1204,1315.1h-42.85v27h50.62v21h-77.87V1250h78v21h-50.77v23.83H1204Z" transform="translate(-502.73 -534.81)"/><path d="M1264.28,1299.11l20.81-49.07h29.42l-36.41,72.43v40.61h-27.64v-40.61L1214.13,1250h29.27Z" transform="translate(-502.73 -534.81)"/><path d="M1392.85,1315.1H1350v27h50.62v21h-77.87V1250h78v21H1350v23.83h42.86Z" transform="translate(-502.73 -534.81)"/><path d="M1470,1333a11.19,11.19,0,0,0-4.23-9.31q-4.24-3.35-14.87-6.91a143.25,143.25,0,0,1-17.39-6.91q-22-10.8-22-29.66a26.61,26.61,0,0,1,5.47-16.58q5.48-7.17,15.49-11.18a60.38,60.38,0,0,1,22.51-4,52.89,52.89,0,0,1,21.86,4.34,34.61,34.61,0,0,1,15,12.39,32.34,32.34,0,0,1,5.36,18.36h-27.18q0-6.91-4.23-10.72t-11.45-3.8q-7.29,0-11.53,3.22a9.89,9.89,0,0,0-4.23,8.19q0,4.35,4.66,7.88t16.38,7.3a101.09,101.09,0,0,1,19.26,8.11q18.32,10.56,18.32,29.12,0,14.82-11.18,23.29t-30.67,8.46a60.75,60.75,0,0,1-24.88-4.93q-11.14-4.92-16.77-13.51a35.21,35.21,0,0,1-5.63-19.76h27.33q0,9.09,4.7,13.4t15.25,4.3q6.75,0,10.68-2.91A9.62,9.62,0,0,0,1470,1333Z" transform="translate(-502.73 -534.81)"/><path class="cls-5" d="M540.8,1438.46h-25v25.86h-13v-63.27h41.2v10.56H515.77V1428h25Z" transform="translate(-502.73 -534.81)"/><path class="cls-5" d="M580.65,1451.29H557.79l-4.34,13H539.58l23.56-63.27h12.08l23.68,63.27H585Zm-19.34-10.57h15.82l-8-23.68Z" transform="translate(-502.73 -534.81)"/><path class="cls-5" d="M639.4,1447.72a6.69,6.69,0,0,0-2.61-5.67q-2.6-2-9.38-4.17a66.39,66.39,0,0,1-10.74-4.33q-10.77-5.82-10.77-15.68a15.26,15.26,0,0,1,2.89-9.15,18.82,18.82,0,0,1,8.3-6.28,31.12,31.12,0,0,1,12.14-2.26,28.52,28.52,0,0,1,12.08,2.45,19.24,19.24,0,0,1,8.24,6.94,18.16,18.16,0,0,1,2.93,10.17h-13a8.55,8.55,0,0,0-2.74-6.76q-2.75-2.42-7.69-2.41-4.78,0-7.44,2a6.38,6.38,0,0,0-2.65,5.32,6.1,6.1,0,0,0,3.11,5.17,34.85,34.85,0,0,0,9.15,3.91q11.12,3.35,16.21,8.3a16.54,16.54,0,0,1,5.08,12.34,15.23,15.23,0,0,1-6.21,12.89q-6.22,4.67-16.73,4.67a32.34,32.34,0,0,1-13.3-2.67,21,21,0,0,1-9.15-7.32,18.77,18.77,0,0,1-3.15-10.78H617q0,10.47,12.52,10.47a12.14,12.14,0,0,0,7.25-1.89A6.15,6.15,0,0,0,639.4,1447.72Z" transform="translate(-502.73 -534.81)"/><path class="cls-5" d="M714.58,1464.32h-13v-27.11H676.12v27.11h-13v-63.27h13v25.64h25.42v-25.64h13Z" transform="translate(-502.73 -534.81)"/><path class="cls-5" d="M741.61,1464.32h-13v-63.27h13Z" transform="translate(-502.73 -534.81)"/><path class="cls-5" d="M807.45,1434.12a38.19,38.19,0,0,1-3.31,16.38,24.84,24.84,0,0,1-9.45,10.87,27.95,27.95,0,0,1-28.14,0,25.14,25.14,0,0,1-9.56-10.8,37.11,37.11,0,0,1-3.43-16.14v-3.13a37.94,37.94,0,0,1,3.37-16.45,25,25,0,0,1,9.51-10.91,27.91,27.91,0,0,1,28.12,0,25.12,25.12,0,0,1,9.52,10.91,38,38,0,0,1,3.37,16.41Zm-13.22-2.87q0-9.95-3.56-15.12a12.59,12.59,0,0,0-20.29-.07q-3.57,5.12-3.61,15v3.09q0,9.69,3.56,15a12.48,12.48,0,0,0,20.34.19q3.52-5.14,3.56-15Z" transform="translate(-502.73 -534.81)"/><path class="cls-5" d="M870.15,1464.32h-13l-25.37-41.63v41.63h-13v-63.27h13l25.42,41.72v-41.72h13Z" transform="translate(-502.73 -534.81)"/><path class="cls-5" d="M920.3,1453.85H948v10.47H907.26v-63.27h13Z" transform="translate(-502.73 -534.81)"/><path class="cls-5" d="M996,1411.61H976.57v52.71h-13v-52.71H944.41v-10.56H996Z" transform="translate(-502.73 -534.81)"/><path class="cls-5" d="M1005.17,1464.32v-63.27h19.46a29.52,29.52,0,0,1,14.93,3.76,26.16,26.16,0,0,1,10.28,10.69,33,33,0,0,1,3.69,15.75v2.91a33.16,33.16,0,0,1-3.62,15.69,26,26,0,0,1-10.24,10.65,29.79,29.79,0,0,1-14.91,3.82Zm13-52.71v42.24h6.3q7.65,0,11.69-5t4.13-14.3v-3.34q0-9.64-4-14.62t-11.69-5Z" transform="translate(-502.73 -534.81)"/><path class="cls-5" d="M1059.31,1458.15a6.36,6.36,0,0,1,2-4.87,7.88,7.88,0,0,1,10.17,0,6.32,6.32,0,0,1,2,4.87,6.21,6.21,0,0,1-2,4.8,8,8,0,0,1-10.21,0A6.24,6.24,0,0,1,1059.31,1458.15Z" transform="translate(-502.73 -534.81)"/></svg>